<svg width="64" height="64" viewBox="0 0 64 64" fill="none" xmlns="http://www.w3.org/2000/svg">
<g clip-path="url(#clip0_1130_1885)">
<path d="M47.319 38.1092L47.2008 38.7419L46.617 38.4709C45.8569 38.1181 45.0118 37.9199 44.1203 37.9199H34.0873H33.5873V37.4199V33.8531V33.3531H34.0873H40.5325C42.7805 33.3531 44.9282 32.3907 46.4245 30.7131C47.9207 29.0355 48.632 26.7919 48.3756 24.5586L46.4183 7.49465C46.4183 7.49464 46.4183 7.49463 46.4183 7.49462C45.9606 3.50694 42.5888 0.499893 38.5749 0.499893H25.4244C21.4105 0.499893 18.0387 3.50694 17.581 7.49463C17.581 7.49464 17.581 7.49464 17.581 7.49465L15.6235 24.5588L15.1268 24.5018L15.6235 24.5588C15.3672 26.792 16.0785 29.0354 17.5747 30.7133C19.0708 32.3911 21.2188 33.3533 23.4666 33.3533H29.912H30.412V33.8533V37.42V37.92H29.912H19.879C18.9874 37.92 18.1424 38.1182 17.3823 38.471L16.7984 38.7421L16.6803 38.1093C16.1327 35.1774 15.1043 32.9307 13.6495 31.3767C12.2364 29.8673 10.3861 29.0156 8.25488 28.901V32.0823C9.48813 32.1794 10.4879 32.6485 11.3263 33.5418C12.6171 34.9169 13.2811 37.0597 13.6175 39.0283C13.9375 40.9009 13.975 42.7039 13.9254 43.7402V43.8899V44.1745C13.9254 47.4568 16.5965 50.1279 19.8788 50.1279H29.9118H30.4118V50.6279V56.1386V56.5471L30.0115 56.6286C26.9955 57.2426 24.4074 59.2321 23.0478 62.0694L25.9812 63.3004C26.778 61.7324 28.1343 60.5609 29.7447 59.9901L30.4118 59.7537V60.4614V63.4999H33.5873V60.4615V59.7538L34.2543 59.9903C35.8647 60.5612 37.2209 61.7326 38.0178 63.3005L40.9512 62.0695C39.5916 59.2322 37.0035 57.2426 33.9875 56.6287L33.5873 56.5472V56.1388V50.628V50.128H34.0873H44.1203C47.4025 50.128 50.0736 47.4569 50.0736 44.1746V43.8901V43.7403C50.024 42.7041 50.0616 40.9011 50.3815 39.0285C50.7179 37.0599 51.3819 34.9171 52.6727 33.5421L47.319 38.1092ZM47.319 38.1092C47.8666 35.1773 48.8949 32.9304 50.3498 31.3766L49.9848 31.0349L50.3498 31.3766C51.7629 29.8672 53.6133 29.0155 55.7441 28.9012M47.319 38.1092L55.7441 28.9012M55.7441 28.9012V32.0825C54.5109 32.1797 53.5112 32.6486 52.6727 33.5421L55.7441 28.9012Z" stroke="#0A7558"/>
</g>
<defs>
<clipPath id="clip0_1130_1885">
<rect width="64" height="64" fill="white"/>
</clipPath>
</defs>
</svg>
