<svg width="64" height="64" viewBox="0 0 64 64" fill="none" xmlns="http://www.w3.org/2000/svg">
<g clip-path="url(#clip0_1130_1905)">
<path d="M49.9848 31.0349C48.4455 32.6789 47.3865 35.0241 46.8275 38.0174C46.0035 37.6349 45.0868 37.4199 44.1203 37.4199H34.0873V33.8531H40.5325C42.923 33.8531 45.2065 32.8299 46.7976 31.0459C48.3888 29.2619 49.145 26.8765 48.8724 24.5016L46.915 7.43764C46.4284 3.19752 42.8429 -0.000106812 38.5749 -0.000106812H25.4244C21.1564 -0.000106812 17.5709 3.19752 17.0843 7.43764L15.1268 24.5018C14.8543 26.8766 15.6105 29.2618 17.2015 31.046C18.7925 32.8303 21.0763 33.8533 23.4666 33.8533H29.912V37.42H19.879C18.9125 37.42 17.9958 37.635 17.1718 38.0175C16.6128 35.0243 15.5538 32.6791 14.0145 31.035C12.393 29.303 10.2286 28.3876 7.75488 28.3876V32.5631C9.09688 32.5631 10.116 32.9829 10.9618 33.884C13.3348 36.412 13.5383 41.9635 13.4164 43.8894L13.4254 43.8899V44.1745C13.4254 47.7329 16.3204 50.6279 19.8788 50.6279H29.9118V56.1386C26.5759 56.8178 23.7389 59.0986 22.3819 62.3321L26.232 63.9479C26.9304 62.2836 28.2806 61.0395 29.9118 60.4614V63.9999H34.0873V60.4615C35.7184 61.0398 37.0685 62.2838 37.767 63.948L41.6171 62.3323C40.2601 59.0988 37.4231 56.8178 34.0873 56.1388V50.628H44.1203C47.6786 50.628 50.5736 47.733 50.5736 44.1746V43.8901L50.5826 43.8896C50.4608 41.9638 50.6643 36.4121 53.0373 33.8843C53.883 32.983 54.9021 32.5634 56.2441 32.5634V28.3879C53.7708 28.3875 51.6063 29.3029 49.9848 31.0349Z" fill="#0A7558"/>
</g>
<defs>
<clipPath id="clip0_1130_1905">
<rect width="64" height="64" fill="white"/>
</clipPath>
</defs>
</svg>
