<svg width="68" height="125" viewBox="0 0 68 125" fill="none" xmlns="http://www.w3.org/2000/svg">
<g clip-path="url(#clip0_1138_1959)">
<path d="M50.5534 108.624C49.3651 107.733 47.4006 106.329 45.1007 104.965C49.8227 104.946 57.2087 105.09 60.2848 106.092C61.1473 106.374 61.8564 106.496 62.453 106.468C63.4065 106.426 63.8928 105.998 64.1324 105.645C64.6451 104.894 64.4869 103.868 63.7155 102.967C60.0453 98.9364 43.3399 99.3879 38.3927 99.3903V94.7073C38.4047 94.1304 37.9255 93.6175 37.341 93.6056V89.7429L39.3725 84.4617C39.5019 84.1261 39.4564 83.7502 39.248 83.4547C39.0419 83.1592 38.7017 82.9843 38.3376 82.9843H29.2698C28.9056 82.9843 28.5678 83.1592 28.3594 83.4547C28.1534 83.7502 28.1078 84.1261 28.2348 84.4617L30.2664 89.7429V93.6056C29.6818 93.6198 29.2027 94.1304 29.2147 94.7096V99.3927C24.2747 99.3879 7.56448 98.9364 3.89183 102.969C3.1204 103.87 2.95989 104.896 3.47497 105.648C3.71454 106 4.20088 106.428 5.15437 106.47C5.75091 106.496 6.46005 106.374 7.32251 106.095C10.3986 105.095 17.7846 104.95 22.5066 104.969C18.3333 107.478 13.2328 111.21 11.436 113.858C10.437 115.562 11.0071 117.834 13.5346 117.877C14.9433 117.877 15.8369 116.976 16.2178 116.593C21.0476 111.723 31.5122 107.064 32.849 106.641C33.3353 106.641 34.2648 106.641 34.7512 106.641C36.0904 107.064 46.5525 111.723 51.3823 116.593C51.7632 116.978 52.6568 117.877 54.0655 117.877C56.593 117.834 57.1632 115.56 56.1642 113.858C55.4838 112.704 53.3827 110.749 50.5534 108.624ZM36.7396 85.1638L35.204 89.1566C35.1561 89.2795 35.1321 89.4119 35.1321 89.5443V94.4874C34.4158 94.6742 33.2011 94.6742 32.4824 94.4874V89.5443C32.4824 89.4119 32.4585 89.2819 32.4106 89.1566L30.8749 85.1638H36.7396ZM36.1838 96.4613V99.9175C34.9428 100.596 32.6669 100.594 31.4307 99.9175V96.4613C32.0488 96.6552 32.825 96.8017 33.7522 96.8112C33.7881 96.8112 33.824 96.8112 33.86 96.8112C34.7895 96.8017 35.5633 96.6552 36.1838 96.4613ZM54.4081 115.633C54.3913 115.65 54.2907 115.692 54.0727 115.692C53.6295 115.692 53.3109 115.409 52.9683 115.064C48.5745 110.834 42.7745 107.856 37.5278 105.416C34.6122 104.166 35.4412 104.511 33.8288 104.454C32.1901 104.511 32.9951 104.163 30.0819 105.416C24.8377 107.853 19.0328 110.834 14.6415 115.064C14.3013 115.409 13.9826 115.692 13.537 115.692C13.319 115.692 13.2208 115.647 13.204 115.636C12.792 114.09 21.6537 107.482 27.243 104.929C27.7053 104.716 27.9593 104.218 27.8563 103.723C27.7533 103.229 27.322 102.87 26.8093 102.854C26.1936 102.835 11.6708 102.385 6.63014 104.024C6.22526 104.156 5.91861 104.225 5.69102 104.26C6.42171 103.572 9.09535 102.192 18.8364 101.705C23.8746 101.454 28.6684 101.558 29.9477 101.594C30.5251 101.965 31.7877 102.594 33.721 102.615C33.7737 102.617 33.8264 102.617 33.8791 102.615C35.8125 102.594 37.075 101.965 37.6524 101.594C42.6954 101.315 59.765 101.709 61.9091 104.26C61.6815 104.225 61.3749 104.154 60.97 104.024C55.9294 102.385 41.4065 102.835 40.7908 102.854C40.2805 102.87 39.8469 103.229 39.7439 103.723C39.6409 104.218 39.8948 104.716 40.3572 104.929C45.956 107.485 54.7962 114.068 54.4081 115.633Z" fill="#0A7558"/>
<path d="M34.6836 15.7218L35.4287 21.9651C35.5629 23.0833 36.5236 23.9249 37.6639 23.9249H42.3787C44.0174 23.9485 45.1697 22.2062 44.487 20.7358L42.4865 16.2537C42.0745 15.3294 41.2815 14.6131 40.3112 14.2893L37.604 13.3839C36.0923 12.8543 34.4728 14.1474 34.6836 15.7218ZM36.8925 15.45C36.8949 15.4429 39.6021 16.3601 39.6069 16.3577C39.9902 16.4854 40.304 16.7691 40.4693 17.1355L42.4698 21.6176C42.4769 21.6318 42.4913 21.6649 42.4626 21.7074C42.4338 21.75 42.3979 21.75 42.3835 21.75H37.6687C37.6472 21.75 37.6304 21.7358 37.628 21.7145L36.8829 15.4713C36.8829 15.4665 36.8829 15.4642 36.8829 15.4642C36.8805 15.4571 36.8877 15.45 36.8925 15.45Z" fill="#0A7558"/>
<path d="M6.20435 60.2688V73.5922C6.20435 74.0035 6.43673 74.3747 6.81047 74.5662L6.21633 78.3911C6.07019 79.3296 6.29299 80.2185 6.82724 80.8307C7.1866 81.2444 7.86219 81.7385 9.0337 81.7385C10.5071 81.7125 11.2689 81.0411 11.669 80.1333C12.9603 82.1782 15.0302 83.3886 17.5625 83.3767C17.62 83.3791 17.6775 83.3744 17.735 83.3673C18.2812 83.3058 28.384 82.2018 33.8055 82.1995C39.227 82.2018 49.3274 83.3058 49.876 83.3673C49.9335 83.3744 49.991 83.3791 50.0509 83.3767C52.5832 83.3886 54.6531 82.1782 55.9444 80.1333C56.3421 81.0388 57.1063 81.7125 58.5797 81.7385C59.7512 81.7385 60.4268 81.2444 60.7862 80.8307C61.3204 80.2185 61.5432 79.3272 61.3971 78.3911L60.8029 74.5662C61.1743 74.3747 61.4091 74.0035 61.4091 73.5922V60.2688C63.4502 60.153 64.9044 58.718 64.9044 56.7677C64.8637 54.4439 63.4622 52.7773 60.573 52.7395H54.9741C54.5669 52.7395 54.1716 52.827 53.8122 52.9854C53.6948 51.4369 53.5415 49.7396 53.3474 47.9028C52.4514 39.4468 53.726 37.0947 55.3359 34.1184C57.2836 30.4755 59.8998 25.4828 55.0891 21.8659C52.0873 19.7028 49.1166 17.2135 47.6983 13.6699C46.0429 9.30128 43.9011 2.19514 38.2544 2.24478C36.024 2.25188 31.5871 2.23769 29.359 2.24478C23.7099 2.19987 21.5729 9.29891 19.9151 13.6699C18.4968 17.2135 15.5261 19.7052 12.5243 21.8659C7.70887 25.4851 10.3346 30.4731 12.2775 34.1184C13.8898 37.0947 15.162 39.4445 14.266 47.9028C14.0719 49.7396 13.921 51.4346 13.8012 52.9854C13.4418 52.827 13.0465 52.7395 12.6393 52.7395H7.04046C4.15121 52.7773 2.74971 54.4416 2.70898 56.7677C2.70898 58.7157 4.16319 60.153 6.20435 60.2688ZM9.56555 79.41C9.39546 79.6085 8.67434 79.6109 8.50425 79.41C8.39644 79.2847 8.35571 79.0152 8.40123 78.7197L8.97381 75.0319C9.01454 75.0319 9.05766 75.0319 9.09839 75.0319L9.67096 78.7197C9.71409 79.0152 9.67336 79.2847 9.56555 79.41ZM9.57274 72.8168C9.26369 72.8665 8.70549 72.8594 8.41321 72.805V60.2759C8.74861 60.2782 9.06724 60.2712 9.43618 60.2357C9.4841 63.4673 9.30921 69.5025 9.57274 72.8168ZM49.2699 81.1097C46.6011 80.8284 38.5922 80.0246 33.8079 80.0199C29.0236 80.0222 21.0147 80.826 18.3459 81.1097C16.6713 74.9184 18.4226 72.1549 19.4599 67.765C26.6255 67.765 40.9927 67.765 48.1559 67.765C49.1909 72.1454 50.9445 74.9255 49.2699 81.1097ZM59.1116 79.41C58.9415 79.6085 58.2204 79.6109 58.0503 79.41C57.9425 79.2847 57.9017 79.0152 57.9472 78.7197L58.5198 75.0319C58.5605 75.0319 58.6037 75.0319 58.6444 75.0319L59.217 78.7197C59.2601 79.0152 59.2194 79.2847 59.1116 79.41ZM58.1772 68.7886V68.5593V60.2357C58.5462 60.2712 58.8648 60.2759 59.2002 60.2759V72.805C58.9079 72.8594 58.3497 72.8665 58.0407 72.8168C58.1796 71.214 58.1796 69.7673 58.1772 68.7886ZM54.4135 55.224C54.5118 55.0846 54.6867 54.9191 54.9765 54.9191H60.5754C62.0032 54.9191 62.698 55.5243 62.698 56.7654C62.698 57.7464 61.8954 58.0939 61.1455 58.0939C60.1848 58.0727 58.2874 58.1932 57.437 57.8835C57.4178 57.8764 57.3986 57.8717 57.3795 57.8646C57.1159 57.7771 56.8955 57.6684 56.7254 57.5384L54.2746 55.6685C54.2602 55.6023 54.277 55.4203 54.4135 55.224ZM55.3718 59.2665C55.5587 59.4107 55.7599 59.5336 55.9684 59.64V63.524C55.4629 63.2521 54.8759 63.0961 54.2123 63.0559C54.2219 62.0772 54.2123 60.4792 54.1261 58.3138L55.3718 59.2665ZM53.8577 65.2284C54.7585 65.2284 55.1227 65.5405 55.3167 65.7745C55.7719 66.2662 56.0043 67.538 55.9684 68.7909C55.9348 71.7578 56.0738 79.4407 51.6058 80.9678C51.9795 79.5282 52.164 77.9963 52.1544 76.3959C52.1424 74.3369 51.8046 72.8239 51.7016 72.4102C51.4524 71.4102 50.6307 68.4316 50.2522 67.0723C51.3925 66.2 52.9929 65.2284 53.8577 65.2284ZM14.2276 33.0924C12.0595 29.2533 10.8065 25.653 13.8275 23.627C17.0977 21.2725 20.3463 18.5326 21.9706 14.4713C22.1743 13.9654 22.3779 13.417 22.5935 12.8354C23.7698 9.73152 25.5403 4.41019 29.3614 4.42438C31.5919 4.43147 36.0263 4.41965 38.2568 4.42438C42.6385 4.4622 44.2341 11.105 45.6452 14.4713C47.2695 18.5326 50.5181 21.2725 53.7883 23.627C56.0738 25.2747 56.1888 27.5772 54.186 31.5818C51.7663 36.3807 50.1659 37.7116 51.153 48.1297C52.0154 56.2642 52.025 61.7155 51.9987 63.4767C51.038 63.8408 49.3466 64.9684 48.6063 65.583C41.2203 65.583 26.4027 65.583 19.0191 65.583C18.2764 64.966 16.5898 63.8408 15.6267 63.4767C15.6004 61.7155 15.61 56.2642 16.4724 48.1297C17.4307 39.0095 15.9454 36.2673 14.2276 33.0924ZM17.3612 67.07C16.9851 68.4293 16.161 71.4102 15.9118 72.4079C15.3752 74.325 15.2458 78.384 16.0077 80.9678C11.5396 79.4407 11.681 71.7578 11.645 68.7909C11.6091 67.538 11.8415 66.2686 12.2967 65.7745C12.4931 65.5405 12.8549 65.2284 13.7557 65.2284C14.6205 65.2284 16.2209 66.2 17.3612 67.07ZM13.4035 63.0583C12.7399 63.0985 12.1529 63.2545 11.6474 63.5264V59.6423C12.0883 59.4414 13.0873 58.6093 13.4898 58.3185C13.4035 60.4815 13.3939 62.0796 13.4035 63.0583ZM7.04046 54.9191H12.6393C13.0921 54.9049 13.3772 55.3966 13.3412 55.6708L10.8904 57.5408C10.7203 57.6708 10.4975 57.7795 10.2364 57.867C10.2172 57.8717 10.198 57.8788 10.1789 57.8859C9.33077 58.1956 7.42857 58.075 6.47027 58.0963C5.72041 58.0963 4.91784 57.7464 4.91784 56.7677C4.91784 55.5243 5.6126 54.9191 7.04046 54.9191Z" fill="#0A7558"/>
<path d="M25.2338 23.9272H29.9486C31.0889 23.9272 32.0496 23.0832 32.1838 21.9674L32.9289 15.7241C33.1397 14.1497 31.5226 12.8543 30.0037 13.3862L27.2965 14.2916C26.3262 14.6154 25.5333 15.3317 25.1212 16.256L23.1208 20.7382C22.4428 22.2062 23.5951 23.9508 25.2338 23.9272ZM25.1475 21.6152L27.148 17.1331C27.3109 16.7667 27.6247 16.483 28.0104 16.3553C28.0224 16.3577 30.7128 15.4452 30.7224 15.4476C30.7272 15.4499 30.7344 15.4547 30.7368 15.4594C30.7368 15.4594 30.7368 15.4617 30.7368 15.4665L29.9917 21.7098C29.9893 21.7287 29.9725 21.7452 29.951 21.7452H25.2362C25.2218 21.7452 25.1859 21.7452 25.1571 21.7027C25.126 21.6625 25.1404 21.6294 25.1475 21.6152Z" fill="#0A7558"/>
<path d="M18.9275 26.6931C18.9538 26.8704 19.0281 27.0406 19.1359 27.1824C24.1118 34.376 26.6129 47.1132 21.1555 60.6328C20.9327 61.1931 21.2154 61.8266 21.7832 62.0441C22.3366 62.2616 22.993 61.9921 23.2134 61.4248C24.5766 57.9828 25.5157 54.529 26.0236 51.1131C29.9143 51.1131 37.6956 51.1131 41.5862 51.1131C42.0941 54.529 43.0333 57.9828 44.3964 61.4248C44.6168 61.9921 45.2733 62.2616 45.8267 62.0441C46.3945 61.8243 46.6748 61.1931 46.4543 60.6328C40.9969 47.1581 43.51 34.3382 48.4763 27.1801C48.9627 26.5465 48.6057 25.6127 47.8151 25.4567C40.8196 25.3929 27.013 25.4567 20.0175 25.4354C19.3563 25.4307 18.8173 26.043 18.9275 26.6931ZM41.179 46.8862C41.2077 47.5671 41.258 48.2503 41.3227 48.9358C37.5638 48.9358 30.0484 48.9358 26.2919 48.9358C26.5818 45.9217 26.5219 42.8367 26.1074 39.8818C29.9574 39.8818 37.6572 39.8818 41.5072 39.8818C41.1861 42.1748 41.0759 44.5175 41.179 46.8862ZM33.7834 27.6174C33.8049 27.6174 45.5583 27.6174 45.5895 27.6174C44.648 29.2509 43.3112 31.9908 42.3457 35.6833C42.1708 36.35 42.0151 37.0237 41.8785 37.7022C37.8417 37.7022 29.7705 37.7022 25.7361 37.7022C25.5996 37.0237 25.4438 36.35 25.2689 35.6833C24.3035 31.9908 22.9643 29.2509 22.0251 27.6174H33.7834Z" fill="#0A7558"/>
<path d="M51.5559 118.307C49.728 118.307 48.2402 119.775 48.2402 121.579C48.4223 125.917 54.6871 125.917 54.8692 121.579C54.8716 119.775 53.3839 118.307 51.5559 118.307ZM51.5559 122.669C50.9474 122.669 50.4515 122.179 50.4515 121.579C50.5114 120.132 52.6005 120.132 52.6603 121.579C52.6603 122.179 52.1668 122.669 51.5559 122.669Z" fill="#0A7558"/>
<path d="M62.8723 107.409C61.0444 107.409 59.5566 108.877 59.5566 110.681C59.7387 115.019 66.0035 115.019 66.1856 110.681C66.1856 108.875 64.7003 107.409 62.8723 107.409ZM62.8723 111.768C62.2638 111.768 61.7679 111.279 61.7679 110.678C61.8278 109.232 63.9169 109.232 63.9768 110.678C63.9768 111.279 63.4808 111.768 62.8723 111.768Z" fill="#0A7558"/>
<path d="M16.0569 118.307C14.229 118.307 12.7412 119.775 12.7412 121.579C12.9233 125.917 19.1881 125.917 19.3702 121.579C19.3726 119.775 17.8848 118.307 16.0569 118.307ZM16.0569 122.669C15.4484 122.669 14.9525 122.179 14.9525 121.579C15.0124 120.132 17.1014 120.132 17.1613 121.579C17.1637 122.179 16.6678 122.669 16.0569 122.669Z" fill="#0A7558"/>
<path d="M4.74244 107.409C2.9145 107.409 1.42676 108.877 1.42676 110.681C1.60883 115.019 7.87366 115.019 8.05573 110.681C8.05573 108.875 6.57038 107.409 4.74244 107.409ZM4.74244 111.768C4.13393 111.768 3.63801 111.279 3.63801 110.678C3.69791 109.232 5.78698 109.232 5.84687 110.678C5.84687 111.279 5.35096 111.768 4.74244 111.768Z" fill="#0A7558"/>
<path d="M45.4506 73.6796C45.2469 73.6465 40.4028 72.8499 33.8073 72.8499C27.2119 72.8499 22.3677 73.6442 22.1641 73.6796C21.5628 73.7789 21.1579 74.3415 21.2585 74.9372C21.3591 75.5306 21.9293 75.9301 22.533 75.8308C22.5809 75.8237 27.3964 75.0318 33.8073 75.0318C40.2063 75.0318 45.0337 75.8214 45.0816 75.8308C45.1439 75.8403 45.2062 75.8474 45.2661 75.8474C46.6053 75.8143 46.785 73.9444 45.4506 73.6796Z" fill="#0A7558"/>
</g>
<defs>
<clipPath id="clip0_1138_1959">
<rect width="67.7895" height="123.958" fill="white" transform="translate(0 0.873779)"/>
</clipPath>
</defs>
</svg>
