<svg width="68" height="124" viewBox="0 0 68 124" fill="none" xmlns="http://www.w3.org/2000/svg">
<g clip-path="url(#clip0_1138_1995)">
<path d="M6.50908 59.4258V72.6807C6.50908 73.0495 6.69834 73.3923 7.01218 73.5908C7.14874 73.6783 7.90339 74.1133 9.32646 74.1133C9.32166 74.1156 8.5742 74.5104 6.98344 74.4844L6.52346 77.4559C6.37971 78.3897 6.60012 79.2738 7.13197 79.8838C7.82434 80.7703 9.60676 81.1036 10.8262 80.4393V76.8295C11.9474 80.1556 14.2784 82.4558 17.8768 82.418C17.9056 82.418 17.9319 82.4156 17.9583 82.4132H17.9607C18.0661 82.4014 28.4539 81.2525 33.9737 81.2478C39.4934 81.2501 49.8813 82.4014 49.9867 82.4132C49.9891 82.4132 49.9891 82.4132 49.9891 82.4132C50.0035 82.4156 50.0203 82.4156 50.0346 82.418C50.0394 82.418 50.0442 82.418 50.049 82.418C50.0658 82.418 50.0826 82.4203 50.0969 82.4203C53.6857 82.4416 56 80.1485 57.1212 76.8295V80.4417C58.3454 81.1059 60.123 80.7726 60.8154 79.8861C61.3473 79.2762 61.5677 78.3897 61.4239 77.4583L60.9639 74.4891C59.3732 74.5152 58.6257 74.1204 58.6209 74.118C60.044 74.118 60.7986 73.683 60.9352 73.5956C61.249 73.3946 61.4383 73.0518 61.4383 72.6854V59.4306C64.8402 59.2627 65.9183 55.53 63.9418 53.2251C63.41 52.6388 62.4014 51.9391 60.607 51.9391H55.0345C53.8007 51.9391 52.6987 52.7334 52.289 53.9178C52.289 53.9178 51.8985 52.5443 53.7624 50.7666C53.6642 49.6248 53.5516 48.4097 53.415 47.1284C52.5238 38.715 53.7911 36.3746 55.3939 33.4149C57.332 29.7909 59.9362 24.8242 55.1495 21.2238C52.1644 19.0726 49.2057 16.5952 47.797 13.0681C46.1488 8.72073 44.019 1.65242 38.401 1.6997H29.5512C23.926 1.65242 21.801 8.71364 20.1503 13.0634C18.7393 16.5904 15.7829 19.0679 12.7979 21.2191C8.00641 24.8218 10.6201 29.7815 12.5535 33.4102C14.1562 36.3723 15.4236 38.7102 14.5324 47.1237C14.3958 48.4049 14.2808 49.62 14.185 50.7618C16.0489 52.5395 15.6584 53.913 15.6584 53.913C15.2487 52.7287 14.1467 51.9344 12.9129 51.9344H7.3404C5.546 51.9344 4.535 52.6341 4.00555 53.2204C2.02907 55.5253 3.10475 59.2604 6.50908 59.4258ZM54.2727 60.8135C54.2655 59.927 54.2415 58.8136 54.1888 57.485C54.5961 57.7781 55.5784 58.5984 56.0216 58.8041V62.6692C53.4989 61.3572 50.9282 62.9836 48.693 64.7164H48.5373C49.0955 63.882 51.0432 61.3359 54.2727 60.8135ZM39.6588 73.657C33.9521 73.4797 28.2814 73.6239 22.5724 73.8414C29.3547 72.0401 38.5903 72.033 45.375 73.8414C43.456 73.7776 41.5586 73.7067 39.6588 73.657ZM31.0533 48.8115C33.9737 48.6035 36.9444 48.6224 39.8145 49.2371C37.9003 49.6673 35.9262 49.7666 33.9737 49.7784C32.0188 49.7642 30.0447 49.6649 28.1329 49.2371C29.0912 49.0101 30.0734 48.8966 31.0533 48.8115ZM28.1329 38.0601C29.0936 37.8332 30.0734 37.7221 31.0533 37.6346C33.9737 37.4266 36.9444 37.4455 39.8145 38.0601C37.9003 38.4904 35.9262 38.592 33.9737 38.6015C32.0188 38.5873 30.0447 38.488 28.1329 38.0601ZM47.6916 25.8573C41.6616 36.2706 41.8724 49.0101 45.5355 60.187C40.3248 49.4829 40.2193 35.5638 47.6916 25.8573ZM37.0426 14.834C37.0426 14.834 37.045 14.834 37.0498 14.8364L39.7426 15.737C40.1259 15.8647 40.4374 16.146 40.6003 16.5124L42.5887 20.9709C42.5959 20.9851 42.6079 21.0182 42.5815 21.0584C42.5528 21.1009 42.5168 21.1009 42.5025 21.1009H37.8092C37.7877 21.1009 37.7709 21.0867 37.7685 21.0655L37.0258 14.8529C37.0258 14.8482 37.0258 14.8458 37.0258 14.8458C37.0306 14.8411 37.0402 14.834 37.0426 14.834ZM25.3563 20.9685L27.3447 16.5101C27.5076 16.146 27.8191 15.8647 28.2024 15.7347L30.8952 14.834C30.9 14.8316 30.9024 14.8316 30.9024 14.8316C30.9072 14.834 30.9143 14.8387 30.9167 14.8435C30.9167 14.8435 30.9167 14.8458 30.9167 14.8505L30.1765 21.0631C30.1741 21.082 30.1573 21.0986 30.1357 21.0986H25.4425C25.4281 21.0986 25.3922 21.0986 25.3634 21.056C25.3347 21.0158 25.3491 20.9827 25.3563 20.9685ZM33.9737 25.3159C37.6631 25.3301 41.3645 25.4246 45.0324 25.8573C37.699 26.609 30.2507 26.6043 22.9174 25.8573C26.5829 25.4246 30.2843 25.3301 33.9737 25.3159ZM25.5791 38.1949C26.9326 45.6131 25.6965 53.4095 22.4095 60.187C26.0726 49.0101 26.281 36.2706 20.2534 25.8573C23.0444 29.259 24.7885 33.9161 25.5791 38.1949ZM11.9234 58.8041C12.3618 58.6032 13.3561 57.7758 13.7562 57.485C13.7034 58.8112 13.6795 59.9246 13.6723 60.8135C16.9017 61.3359 18.8495 63.8843 19.4077 64.7164H19.252C17.0119 62.9836 14.4437 61.3596 11.9234 62.6692V58.8041Z" fill="#0A7558"/>
<path d="M50.6332 107.538C49.4521 106.651 47.4972 105.252 45.2069 103.897C45.2069 103.897 42.7872 102.526 40.2621 101.621C40.2621 101.621 44.6463 102.349 48.2063 103.909C52.6073 103.966 57.8491 104.216 60.3143 105.018C61.1744 105.297 61.8787 105.42 62.4729 105.391C64.5787 105.259 64.9836 103.356 63.7282 101.909C60.0772 97.8997 43.4556 98.3465 38.5348 98.3513V93.6919C38.5468 93.1174 38.07 92.6092 37.4879 92.595V88.7511L39.5098 83.496C39.6392 83.1627 39.5913 82.7892 39.3877 82.496C39.1816 82.2029 38.8438 82.028 38.4821 82.028H29.4622C29.1004 82.028 28.7626 82.2029 28.5566 82.496C28.3506 82.7892 28.305 83.1627 28.4344 83.496L30.4564 88.7511V92.595C29.8742 92.6092 29.3975 93.1174 29.4095 93.6919V98.3513C24.4934 98.3465 7.86949 97.8974 4.21601 101.909C2.95825 103.356 3.36792 105.259 5.47137 105.391C6.06311 105.417 6.76985 105.297 7.62992 105.018C10.0951 104.216 15.3346 103.966 19.7355 103.909C23.2956 102.349 27.6798 101.621 27.6798 101.621C23.2429 103.169 20.0949 105.498 17.311 107.535C14.4937 109.651 12.4046 111.597 11.7218 112.738C11.166 113.668 11.1061 114.783 11.5685 115.585C11.8176 116.015 12.4405 116.736 13.8085 116.736C15.21 116.736 16.0988 115.84 16.4773 115.457C21.2832 110.611 31.6926 105.975 33.0246 105.554H34.9172C36.2493 105.975 46.6587 110.611 51.4645 115.457C51.843 115.84 52.7319 116.736 54.1334 116.736C56.6489 116.693 57.2167 114.431 56.2224 112.736C55.5396 111.599 53.4506 109.653 50.6332 107.538Z" fill="#0A7558"/>
<path d="M51.6319 117.173C49.8136 117.173 48.333 118.634 48.333 120.428C48.5151 124.745 54.7488 124.745 54.9284 120.428C54.9284 118.632 53.4503 117.173 51.6319 117.173Z" fill="#0A7558"/>
<path d="M62.8897 106.33C61.0714 106.33 59.5908 107.791 59.5908 109.585C59.7729 113.901 66.0066 113.901 66.1863 109.585C66.1887 107.788 64.7105 106.33 62.8897 106.33Z" fill="#0A7558"/>
<path d="M16.3145 117.173C14.4962 117.173 13.0156 118.634 13.0156 120.428C13.1977 124.745 19.4314 124.745 19.6111 120.428C19.6111 118.632 18.1329 117.173 16.3145 117.173Z" fill="#0A7558"/>
<path d="M5.05477 106.33C3.23642 106.33 1.75586 107.791 1.75586 109.585C1.93793 113.901 8.17161 113.901 8.35129 109.585C8.35369 107.788 6.87313 106.33 5.05477 106.33Z" fill="#0A7558"/>
</g>
<defs>
<clipPath id="clip0_1138_1995">
<rect width="67.7895" height="123.958" fill="white" transform="translate(0.210938)"/>
</clipPath>
</defs>
</svg>
