<svg width="154" height="182" viewBox="0 0 154 182" fill="none" xmlns="http://www.w3.org/2000/svg">
<g clip-path="url(#clip0_1211_85)">
<path fill-rule="evenodd" clip-rule="evenodd" d="M76.2 146.57H139.26C153.65 146.57 153.8 131.27 152.33 123.72C151.53 118.64 142.9 118.72 141.95 123.72V129.61C141.947 130.909 141.43 132.154 140.512 133.072C139.594 133.99 138.349 134.507 137.05 134.51H16.17C14.8713 134.507 13.6265 133.99 12.7081 133.072C11.7897 132.154 11.2726 130.909 11.27 129.61V123.72C10.32 118.72 1.69 118.64 0.890003 123.72C-0.579997 131.27 -0.429997 146.57 13.96 146.57H76.2ZM31.63 -0.0100098H128.85C135.68 -0.0100098 141.27 5.90999 141.27 13.14V19.42C141.27 28.3 129.27 28.26 129.27 19.48V16.06C129.27 14.9991 128.849 13.9817 128.098 13.2316C127.348 12.4814 126.331 12.06 125.27 12.06H27.85C26.7891 12.06 25.7717 12.4814 25.0216 13.2316C24.2714 13.9817 23.85 14.9991 23.85 16.06V19.42C23.85 28.25 12.39 28.19 12.39 19.61V13.15C12.42 5.91999 18 -0.0100098 24.83 -0.0100098H31.63Z" fill="white"/>
<path fill-rule="evenodd" clip-rule="evenodd" d="M138.82 72.2C142.158 73.6908 145.002 76.1027 147.018 79.1528C149.033 82.2029 150.137 85.7646 150.2 89.42C150.2 100 140.96 108.66 129.67 108.66H98C96.6261 108.701 95.2914 108.199 94.2846 107.263C93.2778 106.328 92.6798 105.033 92.62 103.66V43.38C92.6253 41.9795 93.1846 40.6381 94.1758 39.6488C95.167 38.6594 96.5095 38.1026 97.91 38.1H124.28C128.234 38.0908 132.103 39.2462 135.404 41.4219C138.705 43.5977 141.293 46.6975 142.844 50.3344C144.394 53.9714 144.84 57.9846 144.124 61.8731C143.409 65.7616 141.564 69.3533 138.82 72.2ZM115.19 67.3H125.24V67.19C127.495 66.8361 129.551 65.6907 131.039 63.9592C132.527 62.2276 133.35 60.023 133.36 57.74C133.352 55.207 132.342 52.7799 130.551 50.9888C128.76 49.1977 126.333 48.1879 123.8 48.18H103.55V98.18H129.22C130.543 98.2221 131.861 97.9979 133.096 97.5205C134.331 97.0432 135.458 96.3226 136.408 95.4015C137.359 94.4803 138.115 93.3775 138.632 92.1584C139.148 90.9393 139.414 89.6289 139.414 88.305C139.414 86.9811 139.148 85.6707 138.632 84.4516C138.115 83.2325 137.359 82.1297 136.408 81.2085C135.458 80.2874 134.331 79.5668 133.096 79.0895C131.861 78.6121 130.543 78.3879 129.22 78.43H125.22H115.19C114.461 78.43 113.739 78.2864 113.066 78.0075C112.393 77.7286 111.781 77.3198 111.266 76.8044C110.75 76.2891 110.341 75.6772 110.062 75.0039C109.784 74.3305 109.64 73.6088 109.64 72.88C109.64 72.1512 109.784 71.4295 110.062 70.7561C110.341 70.0827 110.75 69.4709 111.266 68.9556C111.781 68.4402 112.393 68.0314 113.066 67.7525C113.739 67.4736 114.461 67.33 115.19 67.33" fill="white"/>
<path d="M35.64 165.07C35.64 164.619 35.8191 164.187 36.1379 163.868C36.4567 163.549 36.8891 163.37 37.34 163.37C37.7909 163.37 38.2233 163.549 38.5421 163.868C38.8609 164.187 39.04 164.619 39.04 165.07V174.25C39.0374 176.268 38.2351 178.204 36.8088 179.632C35.3825 181.06 33.4484 181.865 31.43 181.87C29.4116 181.867 27.4765 181.065 26.0483 179.639C24.6201 178.212 23.8153 176.278 23.81 174.26V165.08C23.792 164.846 23.8226 164.612 23.8996 164.391C23.9766 164.169 24.0986 163.966 24.2577 163.795C24.4169 163.623 24.6098 163.486 24.8244 163.392C25.0391 163.298 25.2708 163.25 25.505 163.25C25.7392 163.25 25.9709 163.298 26.1856 163.392C26.4002 163.486 26.5931 163.623 26.7523 163.795C26.9114 163.966 27.0334 164.169 27.1104 164.391C27.1874 164.612 27.218 164.846 27.2 165.08V174.26C27.2105 175.38 27.6609 176.452 28.454 177.243C29.2472 178.034 30.3196 178.482 31.44 178.49C32.562 178.485 33.6363 178.036 34.4288 177.242C35.2212 176.447 35.6674 175.372 35.67 174.25L35.64 165.07Z" fill="white"/>
<path d="M51.72 178.48C52.1709 178.48 52.6033 178.659 52.9221 178.978C53.2409 179.297 53.42 179.729 53.42 180.18C53.42 180.631 53.2409 181.063 52.9221 181.382C52.6033 181.701 52.1709 181.88 51.72 181.88H47C45.3106 181.88 43.6903 181.209 42.4957 180.014C41.3011 178.82 40.63 177.199 40.63 175.51V165.07C40.63 164.622 40.8081 164.192 41.125 163.875C41.4419 163.558 41.8718 163.38 42.32 163.38C42.7682 163.38 43.1981 163.558 43.515 163.875C43.832 164.192 44.01 164.622 44.01 165.07V175.49C44.01 176.286 44.3261 177.049 44.8887 177.611C45.4513 178.174 46.2144 178.49 47.01 178.49H51.72V178.48Z" fill="white"/>
<path d="M87.59 102.65C87.7124 103.497 87.6628 104.359 87.444 105.187C87.2252 106.014 86.8418 106.788 86.3167 107.464C85.7916 108.139 85.1357 108.702 84.3881 109.118C83.6405 109.534 82.8167 109.794 81.9659 109.885C81.1152 109.975 80.255 109.892 79.4368 109.642C78.6186 109.392 77.8593 108.98 77.2042 108.43C76.5492 107.879 76.0119 107.202 75.6246 106.44C75.2373 105.677 75.0078 104.844 74.95 103.99L69.72 56.08L51.31 102.93V103.05V103.15V103.25V103.31V103.4V103.5C50.9062 104.206 50.3657 104.825 49.72 105.32L49.62 105.4C49.2852 105.702 48.916 105.964 48.52 106.18L48.4 106.24L48.29 106.3H48.22H48.14H48.07H47.99H47.93H47.86H47.8H47.74H47.66C47.0622 106.514 46.4345 106.632 45.8 106.65H45.34C44.6268 106.63 43.9228 106.484 43.26 106.22H43.17H43.08H43H42.94H42.86H42.79H42.74L42.63 106.16L42.53 106.1H42.47C42.115 105.911 41.78 105.686 41.47 105.43L41.26 105.24L41.1 105.09L40.72 104.99L40.53 104.78C40.2737 104.47 40.0492 104.135 39.86 103.78V103.72L39.8 103.62L39.74 103.51V103.44V103.36V103.3V103.21V103.13V103.04L20.99 56.08L15.78 103.99C15.6023 105.665 14.7666 107.201 13.4566 108.259C12.1467 109.318 10.4698 109.813 8.795 109.635C7.12015 109.457 5.5845 108.622 4.52586 107.312C3.46721 106.002 2.9723 104.325 3.15 102.65L9.29 46.17C9.43826 44.8399 9.83874 43.5502 10.47 42.37C11.2578 40.8955 12.3851 39.6296 13.7587 38.6767C15.1324 37.7239 16.713 37.1115 18.37 36.89H18.71C19.2459 36.8502 19.7841 36.8502 20.32 36.89C20.9668 36.9157 21.6097 37.0028 22.24 37.15C23.8988 37.5299 25.4395 38.3099 26.7276 39.422C28.0157 40.534 29.0121 41.9444 29.63 43.53L45.37 83.31L61.08 43.4C61.8188 41.5083 63.0928 39.8728 64.7462 38.6936C66.3996 37.5143 68.3608 36.8424 70.39 36.76C70.9259 36.7202 71.4641 36.7202 72 36.76H72.34C73.9965 36.983 75.5764 37.5961 76.9498 38.5488C78.3232 39.5015 79.4509 40.7666 80.24 42.24C80.5466 42.8312 80.8041 43.4466 81.01 44.08C81.2122 44.7316 81.3495 45.4015 81.42 46.08L87.59 102.65Z" fill="white"/>
<path d="M23.15 179.99C23.1914 180.218 23.1856 180.453 23.133 180.679C23.0804 180.904 22.9821 181.117 22.8441 181.304C22.7062 181.49 22.5316 181.647 22.3309 181.763C22.1303 181.88 21.908 181.954 21.6776 181.981C21.4472 182.009 21.2137 181.988 20.9914 181.922C20.7691 181.856 20.5627 181.745 20.3849 181.596C20.2072 181.447 20.0618 181.263 19.9578 181.055C19.8537 180.848 19.7932 180.622 19.78 180.39L18.33 168.16L13.14 180.16C12.9618 180.573 12.627 180.899 12.209 181.066C11.7909 181.233 11.3238 181.227 10.91 181.05C10.5124 180.879 10.1969 180.56 10.03 180.16L4.84 168.16L3.38 180.39C3.36677 180.622 3.30628 180.848 3.20225 181.055C3.09822 181.263 2.95284 181.447 2.77508 181.596C2.59732 181.745 2.39092 181.856 2.16861 181.922C1.9463 181.988 1.71276 182.009 1.48239 181.981C1.25202 181.954 1.02968 181.88 0.829063 181.763C0.628447 181.647 0.453797 181.49 0.315867 181.304C0.177937 181.117 0.0796452 180.904 0.0270428 180.679C-0.0255596 180.453 -0.0313594 180.218 0.0100002 179.99L1.72 165.79C1.77488 165.343 1.93967 164.916 2.19966 164.548C2.45965 164.179 2.80676 163.881 3.21 163.68C3.31626 163.622 3.42654 163.572 3.54 163.53H3.67C3.83177 163.474 3.99959 163.437 4.17 163.42C4.59595 163.361 5.02975 163.397 5.43976 163.527C5.84977 163.657 6.22565 163.877 6.54 164.17C6.66616 164.288 6.78007 164.419 6.88 164.56C6.95379 164.662 7.02061 164.769 7.08 164.88C7.11721 164.941 7.15061 165.005 7.18 165.07L11.58 175.27L15.98 164.99C16.1608 164.582 16.4367 164.222 16.7846 163.942C17.1325 163.662 17.5424 163.469 17.98 163.38C18.145 163.346 18.312 163.323 18.48 163.31H19C19.4328 163.359 19.8488 163.506 20.2162 163.74C20.5836 163.974 20.8928 164.288 21.12 164.66C21.2147 164.814 21.2919 164.979 21.35 165.15C21.3918 165.256 21.422 165.367 21.44 165.48C21.4447 165.553 21.4447 165.627 21.44 165.7L23.15 179.99Z" fill="white"/>
<path d="M59.12 180.18C59.12 180.631 58.9409 181.063 58.6221 181.382C58.3033 181.701 57.8709 181.88 57.42 181.88C56.9691 181.88 56.5367 181.701 56.2179 181.382C55.8991 181.063 55.72 180.631 55.72 180.18V166.77H50.89C50.4391 166.77 50.0067 166.591 49.6879 166.272C49.3691 165.953 49.19 165.521 49.19 165.07C49.19 164.619 49.3691 164.187 49.6879 163.868C50.0067 163.549 50.4391 163.37 50.89 163.37H63.95C64.4009 163.37 64.8333 163.549 65.1521 163.868C65.4709 164.187 65.65 164.619 65.65 165.07C65.65 165.521 65.4709 165.953 65.1521 166.272C64.8333 166.591 64.4009 166.77 63.95 166.77H59.12V180.18Z" fill="white"/>
<path d="M69.72 180.18C69.72 180.631 69.5409 181.063 69.2221 181.382C68.9033 181.701 68.4709 181.88 68.02 181.88C67.5691 181.88 67.1367 181.701 66.8179 181.382C66.4991 181.063 66.32 180.631 66.32 180.18V165.07C66.32 164.619 66.4991 164.187 66.8179 163.868C67.1367 163.549 67.5691 163.37 68.02 163.37C68.4709 163.37 68.9033 163.549 69.2221 163.868C69.5409 164.187 69.72 164.619 69.72 165.07V180.18Z" fill="white"/>
<path d="M104.53 179.99C104.559 180.424 104.42 180.852 104.143 181.187C103.866 181.521 103.471 181.737 103.039 181.79C102.608 181.842 102.172 181.727 101.823 181.469C101.473 181.21 101.236 180.828 101.16 180.4L100.56 175.6H94.72C94.4865 175.618 94.2517 175.587 94.0306 175.51C93.8094 175.433 93.6065 175.311 93.4346 175.152C93.2628 174.993 93.1257 174.8 93.0319 174.586C92.9381 174.371 92.8897 174.139 92.8897 173.905C92.8897 173.671 92.9381 173.439 93.0319 173.224C93.1257 173.01 93.2628 172.817 93.4346 172.658C93.6065 172.499 93.8094 172.377 94.0306 172.3C94.2517 172.223 94.4865 172.192 94.72 172.21H100.18L100.02 170.96C100.02 170.96 100.02 170.88 100.02 170.84C99.9758 170.546 99.9124 170.256 99.83 169.97C99.7385 169.664 99.6214 169.366 99.48 169.08C99.1826 168.412 98.7013 167.841 98.0923 167.436C97.4832 167.03 96.7715 166.806 96.04 166.79C95.7506 166.792 95.4622 166.826 95.18 166.89C94.9159 166.956 94.6607 167.053 94.42 167.18C93.7475 167.569 93.1807 168.117 92.7692 168.776C92.3578 169.435 92.1143 170.185 92.06 170.96L91 180.4C90.9757 180.621 90.9082 180.834 90.8013 181.029C90.6945 181.223 90.5503 181.395 90.3771 181.534C90.204 181.673 90.0051 181.776 89.792 181.838C89.5789 181.9 89.3556 181.919 89.135 181.895C88.9144 181.871 88.7007 181.803 88.5062 181.696C88.3116 181.589 88.1401 181.445 88.0013 181.272C87.8624 181.099 87.7591 180.9 87.6971 180.687C87.6351 180.474 87.6157 180.251 87.64 180.03L88.7 170.59C88.8125 169.254 89.254 167.967 89.9851 166.843C90.7163 165.719 91.7142 164.794 92.89 164.15C93.3674 163.91 93.8707 163.725 94.39 163.6C94.931 163.474 95.4846 163.41 96.04 163.41C97.4022 163.418 98.7338 163.814 99.8783 164.553C101.023 165.291 101.932 166.342 102.5 167.58C102.732 168.044 102.926 168.525 103.08 169.02C103.21 169.476 103.307 169.94 103.37 170.41C103.379 170.46 103.379 170.51 103.37 170.56L104.53 179.99Z" fill="white"/>
<path d="M109.72 180.18C109.738 180.414 109.707 180.648 109.63 180.869C109.553 181.091 109.431 181.294 109.272 181.465C109.113 181.637 108.92 181.774 108.706 181.868C108.491 181.962 108.259 182.01 108.025 182.01C107.791 182.01 107.559 181.962 107.344 181.868C107.13 181.774 106.937 181.637 106.778 181.465C106.619 181.294 106.497 181.091 106.42 180.869C106.343 180.648 106.312 180.414 106.33 180.18V166.18C106.32 166.084 106.32 165.986 106.33 165.89C106.352 165.702 106.396 165.518 106.46 165.34L106.6 165.04C106.893 164.52 107.366 164.125 107.93 163.93L108.16 163.87H108.34H108.74H108.79C109.137 163.885 109.477 163.974 109.786 164.133C110.095 164.292 110.366 164.516 110.58 164.79L119.58 176.32V165.07C119.58 164.619 119.759 164.187 120.078 163.868C120.397 163.549 120.829 163.37 121.28 163.37C121.731 163.37 122.163 163.549 122.482 163.868C122.801 164.187 122.98 164.619 122.98 165.07V179.07C122.978 179.425 122.898 179.775 122.744 180.095C122.59 180.415 122.366 180.697 122.09 180.92C121.981 181.011 121.864 181.092 121.74 181.16C121.673 181.199 121.603 181.233 121.53 181.26L121.39 181.32C120.794 181.528 120.14 181.492 119.57 181.22L119.35 181.11C119.231 181.035 119.121 180.948 119.02 180.85C118.942 180.782 118.868 180.708 118.8 180.63L118.74 180.56L109.72 168.99V180.18Z" fill="white"/>
<path d="M136.24 178.48C136.691 178.48 137.123 178.659 137.442 178.978C137.761 179.297 137.94 179.729 137.94 180.18C137.94 180.631 137.761 181.063 137.442 181.382C137.123 181.701 136.691 181.88 136.24 181.88H131.24C129.466 181.88 127.764 181.175 126.509 179.921C125.255 178.666 124.55 176.964 124.55 175.19V170.08C124.555 168.307 125.262 166.609 126.515 165.355C127.769 164.102 129.467 163.395 131.24 163.39H136.24C136.691 163.39 137.123 163.569 137.442 163.888C137.761 164.207 137.94 164.639 137.94 165.09C137.94 165.541 137.761 165.973 137.442 166.292C137.123 166.611 136.691 166.79 136.24 166.79H131.24C130.358 166.8 129.517 167.16 128.9 167.79C128.587 168.093 128.337 168.454 128.166 168.854C127.994 169.255 127.904 169.685 127.9 170.12V175.23C127.905 176.106 128.256 176.945 128.875 177.565C129.495 178.184 130.334 178.535 131.21 178.54H136.21L136.24 178.48Z" fill="white"/>
<path d="M146.07 166.76C144.875 166.755 143.724 167.214 142.86 168.04C142.45 168.425 142.123 168.89 141.898 169.406C141.672 169.921 141.554 170.477 141.55 171.04V174.21C141.552 174.772 141.669 175.328 141.892 175.843C142.116 176.359 142.441 176.824 142.85 177.21C143.714 178.036 144.865 178.495 146.06 178.49C147.255 178.495 148.406 178.036 149.27 177.21C149.68 176.825 150.007 176.36 150.232 175.844C150.458 175.329 150.576 174.773 150.58 174.21V171.04C150.575 170.478 150.458 169.923 150.235 169.408C150.011 168.893 149.687 168.427 149.28 168.04C148.411 167.216 147.258 166.758 146.06 166.76M146.06 163.37C148.131 163.363 150.124 164.158 151.62 165.59C152.359 166.291 152.949 167.134 153.353 168.069C153.757 169.004 153.967 170.011 153.97 171.03V174.2C153.967 175.219 153.757 176.226 153.353 177.161C152.949 178.096 152.359 178.939 151.62 179.64C150.124 181.072 148.131 181.868 146.06 181.86C143.989 181.868 141.996 181.072 140.5 179.64C139.764 178.937 139.177 178.093 138.775 177.159C138.373 176.224 138.164 175.218 138.16 174.2V171.03C138.164 170.012 138.373 169.006 138.775 168.071C139.177 167.137 139.764 166.293 140.5 165.59C141.996 164.158 143.989 163.363 146.06 163.37Z" fill="white"/>
<path d="M74.53 166.77V178.48H81.09C81.3706 178.48 81.6484 178.425 81.9074 178.317C82.1665 178.209 82.4018 178.051 82.5997 177.853C82.7976 177.654 82.9543 177.418 83.0607 177.158C83.1672 176.899 83.2213 176.621 83.22 176.34C83.2211 175.807 83.0212 175.292 82.66 174.9L82.59 174.84C82.3956 174.638 82.1627 174.478 81.905 174.368C81.6473 174.258 81.3702 174.201 81.09 174.2H78.83C78.3791 174.2 77.9467 174.021 77.6279 173.702C77.3091 173.383 77.13 172.951 77.13 172.5C77.13 172.049 77.3091 171.617 77.6279 171.298C77.9467 170.979 78.3791 170.8 78.83 170.8H79.6C80.0821 170.757 80.5345 170.549 80.88 170.21C81.0702 170.024 81.2212 169.801 81.3242 169.556C81.4273 169.31 81.4802 169.046 81.48 168.78C81.48 168.25 81.2693 167.741 80.8942 167.366C80.5191 166.991 80.0104 166.78 79.48 166.78H74.53V166.77ZM71.13 172.52V165.14C71.129 164.909 71.1767 164.681 71.27 164.47C71.3639 164.252 71.496 164.052 71.66 163.88C71.9633 163.59 72.361 163.42 72.78 163.4H79.43C80.8648 163.4 82.2409 163.97 83.2554 164.985C84.27 165.999 84.84 167.375 84.84 168.81C84.8369 169.829 84.5494 170.826 84.01 171.69C84.3716 171.904 84.7071 172.159 85.01 172.45L85.12 172.57C86.0906 173.593 86.6312 174.95 86.63 176.36C86.6274 177.823 86.0449 179.226 85.0103 180.26C83.9757 181.295 82.5732 181.877 81.11 181.88H72.83C72.3791 181.88 71.9467 181.701 71.6279 181.382C71.3091 181.063 71.13 180.631 71.13 180.18V172.52Z" fill="white"/>
</g>
<defs>
<clipPath id="clip0_1211_85">
<rect width="153.98" height="181.88" fill="white"/>
</clipPath>
</defs>
</svg>
